# xmcd
#
# Track frame offsets: 
#        150
#        15600
#        30431
#        45769
#        56494
#        68906
#        81768
#        92090
#        110540
#        125090
#        143090
#
# Disc length: 2059 seconds
#
# Revision: 0
# Processed by: cddbd v1.5.2PL0 Copyright (c) Steve Scherf et al.
# Submitted via: ExactAudioCopyFreeDBPlugin 1.0
#
DISCID=8708090b
DTITLE=Marko Haavisto and Antti Vuorenmaa - Kapteeni Kiddin haamu
DYEAR=2015
DGENRE=Country
TTITLE0=Samanmoinen
TTITLE1=Uskon mihin vaan
TTITLE2=Mustassa joessa
TTITLE3=Helppoa el‰m‰‰
TTITLE4=Hullun naurua
TTITLE5=Mun jutut eiv‰t toimi sinuun en‰‰
TTITLE6=Paratiisipuutarhassa
TTITLE7=Kapteeni Kiddin haamu
TTITLE8=Alla auringon
TTITLE9=Pimeys
TTITLE10=Wanha Jokela
EXTD=
EXTT0=
EXTT1=
EXTT2=
EXTT3=
EXTT4=
EXTT5=
EXTT6=
EXTT7=
EXTT8=
EXTT9=
EXTT10=
PLAYORDER=
